<svg width="177" height="41" viewBox="0 0 177 41" fill="none" xmlns="http://www.w3.org/2000/svg">
    <g clip-path="url(#clip0_2080_641)">
        <path
            d="M123.374 31.1116C122.234 32.9891 120.424 33.9278 118.479 33.9278C115.261 33.9278 111.908 31.4469 111.908 26.7533C111.908 22.1268 115.261 19.713 118.479 19.713C120.424 19.6459 122.301 20.5846 123.374 22.328L123.441 22.2609L128.671 17.8355C126.19 14.6841 122.301 13.0749 118.345 13.0749C111.506 13.0749 104.399 17.7014 104.399 26.8204C104.399 36.0064 111.439 40.5658 118.278 40.4988C122.301 40.4317 126.19 38.8225 128.671 35.7382L123.374 31.1116ZM171.047 29.9718V0.335205H163.605V29.9718C163.605 39.2919 168.432 41.3034 176.478 39.8283L176.21 34.196C172.657 34.7995 171.047 33.9948 171.047 29.9718ZM156.43 32.3186V23.1996C156.43 15.6899 150.798 13.0749 144.16 13.0749C140.673 13.0749 136.449 13.8795 133.23 15.757L135.778 20.7858C137.455 19.8471 140.07 19.0425 143.154 19.0425C145.769 19.0425 149.189 19.78 149.189 22.9314V24.4065C147.244 23.1326 144.629 22.7303 142.282 22.7303C136.516 22.7303 131.889 25.7476 132.158 32.1174C132.292 37.1462 136.717 40.2976 141.612 40.2976C144.964 40.2976 149.055 39.0237 150.597 35.8052C150.597 40.4317 154.888 40.6329 158.844 39.8283L158.777 35.6041C156.363 35.8052 156.43 34.5312 156.43 32.3186ZM149.055 30.5082C148.786 33.2573 145.635 34.4642 143.154 34.4642C141.411 34.4642 139.734 33.5255 139.6 31.6481C139.332 29.1001 141.277 27.7591 143.623 27.625C145.501 27.625 147.512 28.0943 148.987 29.1672L149.055 30.5082ZM86.563 13.0749C79.7237 13.142 72.8845 17.7014 72.8845 26.7533C72.8845 35.8723 79.8578 40.4317 86.7641 40.4317C93.6033 40.4317 100.443 35.8723 100.443 26.7533C100.51 17.5673 93.5363 13.0079 86.563 13.0749ZM86.63 33.7937C83.4786 33.7937 80.3943 31.4469 80.3943 26.7533C80.3943 22.0598 83.5456 19.713 86.7641 19.713C89.9155 19.713 92.9999 22.0598 92.9999 26.7533C92.9999 31.514 89.8484 33.8607 86.63 33.7937ZM65.0396 29.9718V0.335205H57.5969V29.9718C57.5969 39.2919 62.4246 41.3034 70.4707 39.8283L70.2025 34.196C66.6488 34.7995 65.0396 33.9948 65.0396 29.9718ZM26.4852 31.1787V0.402256H18.9084V14.8182C9.85654 10.3258 0.536438 16.5616 0.536438 26.8204C0.536438 34.1289 4.6936 40.6329 12.5386 40.4317C15.9582 40.3647 18.9084 38.6214 20.3836 35.4029V36.0734C20.5177 40.5658 25.2112 40.6329 28.9661 39.7612L28.899 34.8665C26.5522 35.1347 26.4852 33.7266 26.4852 31.1787ZM19.1766 27.8261C19.1766 30.9775 17.0981 33.7266 13.8125 33.7266C9.78949 33.7266 8.11321 30.5082 8.11321 26.7533C8.11321 20.2494 13.8125 17.9696 19.2437 21.121V27.8261H19.1766Z"
            fill="white" />
        <path d="M46.1982 21.1211H38.6885V28.6308H46.1982V21.1211Z" fill="white" />
    </g>
    <defs>
        <clipPath id="clip0_2080_641">
            <rect width="176.814" height="40.7" fill="white" />
        </clipPath>
    </defs>
</svg>
